PathFileType   4   (X/Y/Z)
DataRate	CameraRate	NumFrames	NumMarkers	Units	OrigDataRate	OrigDataStartFrame	OrigNumFrames
120.0	120.0	11	37	mm	120.0	1	142
Frame#	Time	midhip	hip_r	hip_l	knee_r	knee_l	ankle_r	ankle_l	midasis	asis_r	asis_l	psis_r	psis_l	epicondLat_r	epicondLat_l	epicondMed_r	epicondMed_l	malleolusLat_r	malleolusLat_l	malleolusMedv_r	malleolusMedv_l	neck	subclavicle_r	subclavicle_l	sternalnotch	xyphoidprocess	thighwand_r	thighwand_l	upperleg1_r	upperleg1_l	upperleg2_r	upperleg2_l	shankwand_r	shankwand_l	lowerleg1_r	lowerleg1_l	toe_r	toe_l
 	 	X1	Y1	Z1	X2	Y2	Z2	X3	Y3	Z3	X4	Y4	Z4	X5	Y5	Z5	X6	Y6	Z6	X7	Y7	Z7	X8	Y8	Z8	X9	Y9	Z9	X10	Y10	Z10	X11	Y11	Z11	X12	Y12	Z12	X13	Y13	Z13	X14	Y14	Z14	X15	Y15	Z15	X16	Y16	Z16	X17	Y17	Z17	X18	Y18	Z18	X19	Y19	Z19	X20	Y20	Z20	X21	Y21	Z21	X22	Y22	Z22	X23	Y23	Z23	X24	Y24	Z24	X25	Y25	Z25	X26	Y26	Z26	X27	Y27	Z27	X28	Y28	Z28	X29	Y29	Z29	X30	Y30	Z30	X31	Y31	Z31	X32	Y32	Z32	X33	Y33	Z33	X34	Y34	Z34	X35	Y35	Z35	X36	Y36	Z36	X37	Y37	Z37

	1	0.18333	647.504	893.833	-197.587	641.061	872.205	-126.218	639.781	867.598	-276.572	736.959	474.316	-126.892	604.020	447.881	-277.683	745.965	69.460	-155.565	339.810	153.000	-266.858	728.248	955.290	-204.760	729.249	958.889	-87.301	727.248	951.691	-322.218	540.970	999.173	-170.998	547.354	995.512	-256.729	743.935	475.899	-68.831	602.100	448.199	-335.650	707.334	469.250	-180.349	611.257	423.473	-221.648	734.745	66.499	-117.285	320.723	169.000	-296.870	755.334	85.169	-182.940	351.864	161.583	-239.543	549.605	1425.423	-185.231	672.247	1341.439	-136.391	676.449	1348.644	-238.340	657.615	1353.449	-184.674	730.761	1186.839	-205.080	764.778	575.516	6.532	771.822	509.663	-298.604	765.883	644.914	-55.322	703.291	573.116	-325.012	775.608	559.478	-82.794	673.941	489.695	-321.965	753.726	194.102	-21.841	415.788	267.810	-386.782	741.863	165.214	-96.638	388.930	242.529	-313.544	869.698	39.868	-138.570	384.475	43.126	-270.257
	2	0.19167	654.282	894.235	-196.527	647.937	872.676	-125.176	646.410	868.021	-275.525	739.975	474.302	-126.195	618.990	447.422	-278.312	746.147	69.414	-155.648	350.616	156.958	-267.764	734.945	955.788	-203.888	736.138	959.426	-86.397	733.752	952.149	-321.379	547.820	999.662	-169.553	553.784	995.822	-255.294	747.036	475.785	-68.142	616.624	447.960	-336.261	710.885	469.717	-179.311	627.328	422.479	-221.739	734.901	66.459	-117.375	331.886	173.169	-297.887	755.262	85.031	-183.096	362.928	165.154	-240.269	555.943	1425.874	-183.489	679.698	1341.847	-135.404	682.984	1349.057	-237.073	664.326	1354.036	-183.500	737.992	1187.394	-204.474	768.921	575.275	7.343	785.550	511.323	-300.249	770.662	644.994	-54.485	715.851	573.767	-325.981	779.741	559.645	-81.775	687.860	489.630	-322.652	754.769	193.676	-21.608	428.611	270.105	-387.620	742.927	164.822	-96.570	402.143	244.791	-314.410	869.738	39.766	-138.605	389.454	44.475	-270.242
	3	0.20000	660.424	894.060	-195.211	654.743	873.067	-124.173	652.993	868.332	-274.517	742.799	474.254	-125.516	634.022	447.130	-278.957	746.264	69.362	-155.729	361.874	160.780	-268.528	741.544	956.229	-203.060	742.913	959.933	-85.484	740.175	952.526	-320.636	554.525	1000.044	-168.145	560.076	995.968	-253.896	750.011	475.651	-67.480	631.250	447.865	-336.886	713.057	470.580	-178.491	642.478	422.471	-221.951	735.031	66.410	-117.453	343.521	177.119	-298.813	755.186	85.016	-183.191	374.358	168.496	-241.024	562.167	1426.432	-181.703	686.951	1342.357	-134.323	689.708	1349.757	-236.097	670.815	1354.483	-182.425	745.371	1188.205	-204.000	773.045	575.088	8.094	799.263	513.250	-301.779	775.660	645.031	-53.925	728.623	574.522	-327.024	783.452	559.589	-81.188	701.527	490.164	-323.403	755.831	193.252	-21.373	441.894	272.165	-388.440	743.411	164.599	-96.369	415.604	246.570	-315.594	869.785	39.676	-138.638	395.822	46.246	-270.531
	4	0.20833	666.383	893.800	-193.772	661.479	873.384	-123.198	659.513	868.564	-273.537	745.460	474.180	-124.842	649.086	447.020	-279.600	746.322	69.316	-155.816	373.555	164.445	-269.109	748.043	956.628	-202.259	749.583	960.401	-84.553	746.504	952.855	-319.964	561.062	1000.342	-166.799	566.255	995.980	-252.569	752.874	475.501	-66.829	645.944	447.931	-337.508	715.560	471.668	-178.364	657.426	422.601	-222.405	735.156	66.363	-117.520	355.576	180.845	-299.585	755.128	85.054	-183.269	385.638	171.818	-241.689	568.826	1426.992	-180.368	692.997	1342.848	-133.019	696.146	1350.215	-235.558	677.071	1354.794	-181.481	751.286	1188.523	-202.757	777.135	574.952	8.788	812.933	515.490	-303.191	780.655	644.908	-53.337	741.181	575.509	-328.113	787.271	559.396	-80.892	715.107	490.904	-324.260	756.972	192.824	-21.157	455.542	274.054	-389.196	743.809	164.593	-96.163	428.300	248.948	-316.260	869.844	39.599	-138.677	403.837	48.421	-271.167
	5	0.21667	672.389	893.682	-192.437	668.160	873.637	-122.243	665.953	868.757	-272.577	748.008	474.088	-124.178	664.146	447.110	-280.225	746.349	69.282	-155.909	385.665	167.907	-269.486	754.450	957.000	-201.478	756.180	960.826	-83.617	752.719	953.174	-319.339	567.441	1000.586	-165.531	572.342	995.893	-251.323	755.659	475.336	-66.194	660.666	448.175	-338.110	719.294	471.554	-177.542	673.199	421.993	-223.203	735.298	66.323	-117.580	368.028	184.318	-300.155	755.162	85.119	-183.309	397.542	175.165	-242.226	575.539	1427.323	-179.069	697.640	1342.818	-131.680	702.315	1350.243	-234.760	683.149	1355.004	-180.643	755.691	1188.084	-200.969	781.193	574.854	9.428	826.533	518.076	-304.475	784.571	644.554	-52.413	753.264	576.874	-328.971	791.129	559.235	-80.027	728.925	491.659	-325.186	758.209	192.392	-20.982	469.455	275.836	-389.836	744.172	164.660	-95.798	441.118	251.744	-316.622	869.914	39.532	-138.725	413.655	50.920	-272.170
	6	0.22500	678.327	893.558	-191.217	674.798	873.842	-121.304	672.300	868.945	-271.633	750.497	473.981	-123.538	679.159	447.413	-280.806	746.375	69.259	-156.010	398.240	171.091	-269.659	760.771	957.362	-200.718	762.731	961.207	-82.698	758.810	953.517	-318.739	573.696	1000.803	-164.345	578.359	995.745	-250.158	758.411	475.156	-65.588	675.375	448.611	-338.670	723.653	471.060	-176.472	688.957	421.624	-223.866	735.472	66.292	-117.639	380.886	187.488	-300.497	755.302	85.220	-183.298	410.517	178.696	-242.780	582.211	1427.616	-177.848	702.281	1342.484	-130.716	708.266	1350.174	-234.180	689.111	1355.153	-179.883	759.738	1187.425	-199.977	785.244	574.780	10.006	840.033	521.020	-305.613	788.544	644.384	-51.596	765.377	578.501	-329.581	795.222	559.015	-79.005	742.683	492.587	-325.929	759.525	191.960	-20.860	483.549	277.554	-390.319	744.545	164.734	-95.405	454.478	254.447	-317.836	869.993	39.471	-138.785	425.305	53.615	-273.536
	7	0.23333	684.390	893.622	-189.940	681.396	874.017	-120.387	678.550	869.156	-270.711	752.966	473.855	-122.941	694.074	447.947	-281.327	746.421	69.243	-156.115	411.321	173.903	-269.654	767.014	957.728	-199.983	769.251	961.550	-81.809	764.776	953.907	-318.157	579.866	1001.013	-163.232	584.330	995.568	-249.054	761.171	474.953	-65.030	690.022	449.256	-339.170	726.728	471.181	-175.809	703.555	422.357	-224.130	735.675	66.267	-117.701	394.172	190.278	-300.618	755.427	85.281	-183.299	424.188	182.097	-243.060	588.374	1427.984	-176.757	708.324	1342.291	-130.186	714.254	1350.116	-233.756	695.015	1355.245	-179.180	765.163	1187.128	-199.775	789.332	574.715	10.503	853.406	524.308	-306.588	792.961	644.245	-51.086	777.655	580.065	-330.090	799.021	558.581	-78.510	755.958	494.107	-326.418	760.876	191.537	-20.791	497.764	279.208	-390.631	745.180	164.724	-95.142	468.451	256.887	-318.382	870.077	39.407	-138.855	438.682	56.356	-275.245
	8	0.24167	690.632	893.923	-188.539	687.955	874.180	-119.499	684.702	869.411	-269.818	755.425	473.702	-122.400	708.829	448.723	-281.778	746.488	69.229	-156.226	424.942	176.246	-269.514	773.184	958.114	-199.276	775.744	961.868	-80.961	770.624	954.361	-317.591	585.986	1001.230	-162.172	590.278	995.394	-247.975	763.963	474.721	-64.536	704.549	450.121	-339.603	728.431	471.410	-175.196	718.450	422.915	-225.057	735.894	66.247	-117.769	407.909	192.595	-300.556	755.523	85.281	-183.351	438.478	184.612	-243.024	594.367	1428.409	-175.406	714.953	1342.320	-129.457	720.096	1350.149	-232.936	700.929	1355.320	-178.495	771.117	1187.114	-199.438	793.497	574.642	10.897	866.629	527.901	-307.387	797.212	643.862	-50.960	789.829	581.918	-330.574	802.292	558.104	-78.476	769.607	496.056	-327.183	762.213	191.127	-20.764	512.072	280.759	-390.785	746.036	164.549	-95.194	482.564	259.141	-317.723	870.158	39.335	-138.931	453.582	58.994	-277.269
	9	0.25000	696.971	894.342	-187.147	694.469	874.343	-118.650	690.767	869.725	-268.963	757.856	473.519	-121.922	723.371	449.735	-282.152	746.571	69.215	-156.345	439.119	178.035	-269.285	779.288	958.530	-198.599	782.204	962.168	-80.162	776.371	954.891	-317.035	592.085	1001.457	-161.140	596.220	995.252	-246.878	766.783	474.459	-64.114	718.909	451.204	-339.961	730.164	471.787	-174.773	734.031	422.643	-226.863	736.115	66.230	-117.851	422.119	194.349	-300.363	755.644	85.229	-183.432	452.967	186.468	-242.667	601.014	1428.828	-174.136	721.316	1342.529	-128.792	725.983	1350.291	-232.319	706.894	1355.441	-177.819	776.636	1187.107	-198.975	797.762	574.548	11.172	879.679	531.744	-307.996	801.518	643.401	-51.067	801.698	584.305	-331.067	805.624	557.916	-78.618	783.588	497.593	-328.316	763.499	190.734	-20.766	526.482	282.130	-390.808	747.130	164.164	-95.456	497.058	261.085	-317.305	870.232	39.251	-139.007	469.755	61.405	-279.568
	10	0.25833	703.372	894.834	-185.775	700.926	874.510	-117.853	696.765	870.104	-268.160	760.234	473.313	-121.508	737.669	450.960	-282.436	746.662	69.202	-156.481	453.856	179.207	-269.015	785.332	958.978	-197.942	788.614	962.454	-79.410	782.051	955.503	-316.473	598.181	1001.692	-160.116	602.152	995.168	-245.739	769.612	474.173	-63.771	733.074	452.480	-340.234	732.722	472.039	-174.518	749.365	422.888	-228.390	736.325	66.215	-117.956	436.814	195.470	-300.096	755.661	85.100	-183.560	467.931	187.730	-242.221	607.601	1429.061	-173.113	727.384	1342.629	-128.295	731.774	1350.298	-231.837	712.883	1355.631	-177.139	781.945	1186.960	-198.524	802.127	574.421	11.315	892.529	535.773	-308.407	805.754	642.976	-51.095	813.613	586.933	-331.394	809.289	557.818	-78.757	797.447	499.377	-329.215	764.717	190.355	-20.785	541.017	283.234	-390.738	748.415	163.725	-95.656	512.207	262.250	-317.325	870.301	39.155	-139.078	486.961	63.505	-282.093
	11	0.26667	709.558	895.129	-184.432	707.319	874.681	-117.112	702.720	870.547	-267.414	762.544	473.098	-121.156	751.719	452.353	-282.624	746.746	69.192	-156.647	469.144	179.728	-268.740	791.328	959.457	-197.292	794.957	962.719	-78.697	787.699	956.195	-315.887	604.275	1001.925	-159.091	608.058	995.164	-244.569	772.429	473.877	-63.503	747.035	453.906	-340.413	735.567	471.932	-174.117	764.938	423.859	-229.432	736.517	66.205	-118.092	451.998	195.917	-299.803	755.535	84.977	-183.741	483.907	187.910	-242.271	613.750	1429.286	-171.976	733.350	1342.702	-127.732	737.113	1350.548	-231.132	718.842	1355.894	-176.453	787.172	1187.055	-198.512	806.557	574.247	11.328	905.151	539.929	-308.621	810.084	642.592	-51.392	825.394	589.612	-331.764	813.122	557.633	-78.947	811.496	501.935	-329.871	765.870	189.982	-20.824	555.705	284.003	-390.603	749.211	163.633	-95.706	527.436	262.822	-317.383	870.365	39.053	-139.144	505.011	65.254	-284.786
